<?xml version="1.0" encoding="UTF-8" standalone="no"?>
<!-- Created with Inkscape (http://www.inkscape.org/) -->

<svg
   xmlns:dc="http://purl.org/dc/elements/1.1/"
   xmlns:cc="http://creativecommons.org/ns#"
   xmlns:rdf="http://www.w3.org/1999/02/22-rdf-syntax-ns#"
   xmlns:svg="http://www.w3.org/2000/svg"
   xmlns="http://www.w3.org/2000/svg"
   xmlns:sodipodi="http://sodipodi.sourceforge.net/DTD/sodipodi-0.dtd"
   xmlns:inkscape="http://www.inkscape.org/namespaces/inkscape"
   width="8.4666672mm"
   height="8.4666662mm"
   viewBox="0 0 8.4666674 8.4666661"
   version="1.1"
   id="svg8"
   sodipodi:docname="BatteryOverLayUI.svg"
   inkscape:version="0.92.4 (5da689c313, 2019-01-14)"
   style="enable-background:new">
  <defs
     id="defs2">
    <inkscape:path-effect
       effect="bend_path"
       id="path-effect2396"
       is_visible="true"
       bendpath="M 0,0 H 1"
       prop_scale="0.75"
       scale_y_rel="false"
       vertical="false"
       bendpath-nodetypes="cc" />
    <inkscape:path-effect
       effect="bend_path"
       id="path-effect2394"
       is_visible="true"
       bendpath="M 1.7245097,4.5243425 H 6.7421498"
       prop_scale="1.33"
       scale_y_rel="false"
       vertical="false" />
    <filter
       inkscape:collect="always"
       style="color-interpolation-filters:sRGB"
       id="filter7446"
       x="-0.02247246"
       width="1.0449449"
       y="-0.025405735"
       height="1.0508115">
      <feGaussianBlur
         inkscape:collect="always"
         stdDeviation="0.0085376634"
         id="feGaussianBlur7448" />
    </filter>
    <filter
       inkscape:collect="always"
       style="color-interpolation-filters:sRGB"
       id="filter10678"
       x="-0.052335754"
       width="1.1046715"
       y="-0.027436227"
       height="1.0548725">
      <feGaussianBlur
         inkscape:collect="always"
         stdDeviation="0.0078271003"
         id="feGaussianBlur10680" />
    </filter>
    <pattern
       y="0"
       x="0"
       height="6"
       width="6"
       patternUnits="userSpaceOnUse"
       id="EMFhbasepattern" />
  </defs>
  <sodipodi:namedview
     id="base"
     pagecolor="#ffffff"
     bordercolor="#666666"
     borderopacity="1.0"
     inkscape:pageopacity="0.0"
     inkscape:pageshadow="2"
     inkscape:zoom="16"
     inkscape:cx="10.707303"
     inkscape:cy="10.320669"
     inkscape:document-units="mm"
     inkscape:current-layer="layer2"
     showgrid="false"
     inkscape:lockguides="false"
     inkscape:window-width="1920"
     inkscape:window-height="1003"
     inkscape:window-x="-4"
     inkscape:window-y="-4"
     inkscape:window-maximized="1"
     showguides="false"
     inkscape:guide-bbox="true" />
  <metadata
     id="metadata5">
    <rdf:RDF>
      <cc:Work
         rdf:about="">
        <dc:format>image/svg+xml</dc:format>
        <dc:type
           rdf:resource="http://purl.org/dc/dcmitype/StillImage" />
        <dc:title />
      </cc:Work>
    </rdf:RDF>
  </metadata>
  <g
     inkscape:groupmode="layer"
     id="layer12"
     inkscape:label="border 1"
     transform="translate(-1.714842,1.8072072)"
     style="display:none"
     sodipodi:insensitive="true">
    <rect
       style="opacity:1;fill:#003c6c;fill-opacity:1;stroke:#000000;stroke-width:0.5498665;stroke-miterlimit:4;stroke-dasharray:none;stroke-opacity:1"
       id="rect13099"
       width="16.383467"
       height="4.3417516"
       x="0.27493325"
       y="2.0755339"
       rx="1.3016413"
       ry="1.3016413" />
  </g>
  <g
     inkscape:label="bg"
     inkscape:groupmode="layer"
     id="layer1"
     transform="translate(155.22796,-287.92856)"
     style="display:none"
     sodipodi:insensitive="true">
    <rect
       style="fill:#003c6c;fill-opacity:1;stroke:none;stroke-width:0.26458332;stroke-miterlimit:4;stroke-dasharray:none"
       id="rect4577"
       width="8.4666662"
       height="8.4666662"
       x="-156.92981"
       y="289.64795"
       ry="2.3386133"
       rx="2.3386133" />
  </g>
  <g
     inkscape:groupmode="layer"
     id="layer2"
     inkscape:label="battery"
     style="display:inline"
     transform="translate(-1.714842,1.8191789)">
    <path
       style="opacity:1;fill:#333333;fill-opacity:1;stroke:none;stroke-width:0.28167957"
       d="M 12.5,0 V 1.8828125 H 5 C 2.5767714,2.1243734 0,4.3071213 0,6.5878906 V 27 c 0.22425071,2.378149 2.1732373,4.862281 5,5 h 22 c 2.688003,0 5,-2.538492 5,-5 V 6.5878906 C 32,4.3079615 29.437589,2.1245114 27,1.8828125 H 19.5 V 0 Z M 6.2050781,7.7265625 h 0.00195 19.6992188 l -6.896484,10.3925785 3.982422,-0.08984 v 0.002 l -7.417969,9.824219 v -6.775391 l -4.962891,-0.002 v -0.002 l 0.773438,-1.785156 1.785156,-4.125 H 7.4570312 v -5.8710941 -0.00195 z"
       transform="matrix(0.26458333,0,0,0.26458333,1.714842,-1.8191789)"
       id="rect979-56"
       inkscape:connector-curvature="0"
       sodipodi:nodetypes="cccsccssscccccccccccccccccccc" />
    <path
       style="opacity:1;fill:#ffffff;fill-opacity:0.44313726;stroke:none;stroke-width:0.10299935;stroke-miterlimit:4;stroke-dasharray:none;stroke-opacity:1"
       d="m 5.1926142,-1.3602666 c 0,0 0.1356226,-0.021351 0.203947,-0.025642 0.067871,-0.00425 0.2039473,0 0.2039473,0 0.070583,0.00885 0.1282587,-0.036336 0.1282587,-0.1133204 v -0.076076 c 0,-0.076984 -0.057679,-0.1557296 -0.1282587,-0.1646037 0,0 -0.1360774,-0.00425 -0.2039473,0 -0.068324,0.00427 -0.203947,0.025642 -0.203947,0.025642 -0.070583,0.00885 -0.1282586,0.061978 -0.1282586,0.1389621 v 0.076076 c 0,0.076984 0.057677,0.1478378 0.1282586,0.138962 z"
       id="rect2462"
       inkscape:connector-curvature="0"
       sodipodi:nodetypes="sassssassss" />
    <path
       style="display:inline;opacity:1;fill:#000000;fill-opacity:0.12437811;stroke:none;stroke-width:0.07452772;enable-background:new"
       d="m 8.6447885,6.6474873 0.2137785,0 c 0.711201,1e-7 1.318827,-0.6716851 1.322942,-1.3229463 l 0.0083,-1.3087193 C 10.198326,2.6627254 7.2916652,6.647487 8.6447885,6.6474873 Z"
       id="rect979-56-8"
       inkscape:connector-curvature="0"
       sodipodi:nodetypes="sssss" />
    <ellipse
       style="opacity:1;fill:#ffffff;fill-opacity:0.44278607;stroke:none;stroke-width:0.17482279;stroke-miterlimit:4;stroke-dasharray:none;stroke-opacity:1"
       id="path2460"
       cx="1.9001024"
       cy="1.1674393"
       rx="0.46884844"
       ry="0.31507078"
       transform="matrix(0.73994436,-0.67266808,0.92162226,0.38808815,0,0)" />
    <path
       inkscape:connector-curvature="0"
       style="display:inline;opacity:1;fill:none;fill-opacity:1;stroke:#fdc700;stroke-width:0.2;stroke-miterlimit:4;stroke-dasharray:none;stroke-opacity:1;enable-background:new"
       d="m 3.3565413,0.22481462 0.33098,0.4148846 V 2.1932931 h 1.511835 l -0.677039,1.5640337 1.313092,3.968e-4 v 1.7933223 l 1.962679,-2.5999021 -1.054031,0.023585 1.825027,-2.74991548 z m 0.233155,0.1167709 h 4.724194 L 6.4888623,3.0915011 h 0.994486 l -1.531555,2.101489 3.97e-4,-1.5520475 H 4.7400063 L 5.4151113,2.076909 H 3.8042923 V 0.56043422 Z"
       id="rect979-56-3-0-1" />
  </g>
  <g
     inkscape:groupmode="layer"
     id="layer4"
     inkscape:label="bolt"
     style="display:none"
     transform="translate(-1.7077502,1.8142947)"
     sodipodi:insensitive="true">
    <g
       id="g2392">
      <path
         sodipodi:nodetypes="ccccccccccc"
         inkscape:connector-curvature="0"
         id="rect979"
         d="M 1.7245097,2.0155275 H 6.7421498 L 4.8035197,4.8595076 h 1.0562701 l -1.6264001,2.1736499 5e-5,-1.60528 h -1.28739 l 0.71709,-1.61774 h -1.71089 v -1.56819 z"
         style="fill:#fdc700;fill-opacity:1;stroke:none;stroke-width:0.05844481" />
      <path
         sodipodi:nodetypes="cccccc"
         inkscape:connector-curvature="0"
         id="rect979-5"
         d="m 1.9366032,2.0907368 1.5422912,-6.71e-5 -0.075601,0.279 H 2.056 V 2.1879853 Z"
         style="fill:#fde200;fill-opacity:1;stroke:none;stroke-width:0.01558836" />
      <path
         sodipodi:nodetypes="ccccc"
         inkscape:connector-curvature="0"
         id="rect979-51-0"
         d="M 2.056,2.8230037 V 2.4580487 H 2.4190412 L 2.330587,2.781297 Z"
         style="fill:#fde200;fill-opacity:1;stroke:none;stroke-width:0.06172555" />
      <path
         sodipodi:nodetypes="cccc"
         inkscape:connector-curvature="0"
         id="rect979-51-0-0"
         d="M 4.3692783,6.0547819 V 5.6426161 l 0.2758537,0.00179 z"
         style="fill:#fde200;fill-opacity:1;stroke:none;stroke-width:0.0132919" />
      <path
         sodipodi:nodetypes="ccccc"
         inkscape:connector-curvature="0"
         id="rect979-51-0-5"
         d="m 3.2442223,5.0885713 0.5446158,-1.228484 0.1892296,0.00165 -0.5119214,1.2268331 z"
         style="fill:#fde200;fill-opacity:1;stroke:none;stroke-width:0.16931127" />
    </g>
  </g>
  <g
     inkscape:groupmode="layer"
     id="layer8"
     inkscape:label="glass border"
     style="display:none"
     sodipodi:insensitive="true"
     transform="translate(-1.7077502,1.8142947)">
    <rect
       style="opacity:1;fill:none;fill-opacity:0.80904523;stroke:#ffffff;stroke-width:0.64200002;stroke-miterlimit:4;stroke-dasharray:none;stroke-opacity:0.12272728"
       id="rect4596-3-1-6"
       width="7.2069559"
       height="7.2069697"
       x="0.63703185"
       y="0.62266916"
       ry="1.4478271" />
  </g>
  <g
     inkscape:groupmode="layer"
     id="layer5"
     inkscape:label="border"
     style="display:none;opacity:1"
     transform="translate(-1.7077502,1.8142947)">
    <path
       style="fill:none;fill-opacity:0.80904523;stroke:#000000;stroke-width:0.72692913;stroke-miterlimit:4;stroke-dasharray:none"
       d="m 1.914078,0.35637704 h 4.638494 c 0.8629686,0 1.5572218,0.69473646 1.557428,1.55770516 l 2.771e-4,1.1596271 c 0,0.7730847 0,1.5461694 0,2.3192541 v 1.1596271 c 0,0.8629687 -0.6947365,1.5577052 -1.5577051,1.5577052 H 1.914078 c -0.8629687,0 -1.5577052,-0.6947365 -1.5577052,-1.5577052 V 1.9140822 c 0,-0.8629687 0.6947365,-1.55770516 1.5577052,-1.55770516 z"
       id="rect4596"
       inkscape:connector-curvature="0"
       sodipodi:nodetypes="sssccssssss" />
  </g>
  <g
     inkscape:groupmode="layer"
     id="layer3"
     inkscape:label="spec"
     style="display:none;opacity:1"
     sodipodi:insensitive="true"
     transform="translate(-1.7077502,1.8142947)">
    <ellipse
       style="opacity:1;fill:#ffffff;fill-opacity:0.98039216;stroke:none;stroke-width:0.23510391;stroke-miterlimit:4;stroke-dasharray:none;stroke-opacity:0.51758794;filter:url(#filter7446)"
       id="path4558"
       ry="0.48842648"
       rx="0.35026354"
       cy="0.15518822"
       cx="1.7329773"
       transform="matrix(0.94529726,0.72045642,-0.86057056,0.8197943,-0.08730608,-0.11071123)" />
    <ellipse
       style="opacity:1;fill:#ffffff;fill-opacity:0.98039216;stroke:none;stroke-width:0.04431476;stroke-miterlimit:4;stroke-dasharray:none;filter:url(#filter10678)"
       id="path4530-8-6-1-6"
       cx="2.1993775"
       cy="-0.99390841"
       rx="0.34234008"
       ry="0.17946661"
       transform="matrix(0,0.59928218,-1.0237348,0,-0.10614916,0.66287573)" />
  </g>
</svg>
