<?xml version="1.0" encoding="UTF-8" standalone="no"?>
<!-- Created with Inkscape (http://www.inkscape.org/) -->

<svg
   xmlns:dc="http://purl.org/dc/elements/1.1/"
   xmlns:cc="http://creativecommons.org/ns#"
   xmlns:rdf="http://www.w3.org/1999/02/22-rdf-syntax-ns#"
   xmlns:svg="http://www.w3.org/2000/svg"
   xmlns="http://www.w3.org/2000/svg"
   xmlns:xlink="http://www.w3.org/1999/xlink"
   xmlns:sodipodi="http://sodipodi.sourceforge.net/DTD/sodipodi-0.dtd"
   xmlns:inkscape="http://www.inkscape.org/namespaces/inkscape"
   width="16.933332mm"
   height="8.4688759mm"
   viewBox="0 0 16.933333 8.4688758"
   version="1.1"
   id="svg8"
   sodipodi:docname="BatteryUI.svg"
   inkscape:version="0.92.4 (5da689c313, 2019-01-14)"
   style="enable-background:new">
  <defs
     id="defs2">
    <linearGradient
       id="linearGradient5581"
       inkscape:collect="always">
      <stop
         id="stop5585"
         offset="0"
         style="stop-color:#ffffff;stop-opacity:1;" />
      <stop
         id="stop5587"
         offset="1"
         style="stop-color:#ffffff;stop-opacity:0;" />
    </linearGradient>
    <filter
       inkscape:collect="always"
       style="color-interpolation-filters:sRGB"
       id="filter7446"
       x="-0.02247246"
       width="1.0449449"
       y="-0.025405735"
       height="1.0508115">
      <feGaussianBlur
         inkscape:collect="always"
         stdDeviation="0.0085376634"
         id="feGaussianBlur7448" />
    </filter>
    <filter
       inkscape:collect="always"
       style="color-interpolation-filters:sRGB"
       id="filter9058-0"
       x="-0.0072852159"
       width="1.0145704"
       y="-0.034010857"
       height="1.0680217">
      <feGaussianBlur
         inkscape:collect="always"
         stdDeviation="0.056103521"
         id="feGaussianBlur9060-6" />
    </filter>
    <filter
       inkscape:collect="always"
       style="color-interpolation-filters:sRGB"
       id="filter10678"
       x="-0.052335754"
       width="1.1046715"
       y="-0.027436227"
       height="1.0548725">
      <feGaussianBlur
         inkscape:collect="always"
         stdDeviation="0.0078271003"
         id="feGaussianBlur10680" />
    </filter>
    <filter
       inkscape:collect="always"
       style="color-interpolation-filters:sRGB"
       id="filter9058-0-1"
       x="-0.0072852159"
       width="1.0145704"
       y="-0.034010857"
       height="1.0680217">
      <feGaussianBlur
         inkscape:collect="always"
         stdDeviation="0.056103521"
         id="feGaussianBlur9060-6-3" />
    </filter>
    <filter
       inkscape:collect="always"
       style="color-interpolation-filters:sRGB"
       id="filter5573"
       x="-0.0072756372"
       width="1.0145513"
       y="-0.033966137"
       height="1.0679323">
      <feGaussianBlur
         inkscape:collect="always"
         stdDeviation="0.056029754"
         id="feGaussianBlur5575" />
    </filter>
    <radialGradient
       inkscape:collect="always"
       xlink:href="#linearGradient5581"
       id="radialGradient5583"
       cx="9.3758602"
       cy="2.1141405"
       fx="9.3758602"
       fy="2.1141405"
       r="9.3756838"
       gradientTransform="matrix(1,0,0,0.22547301,0,1.637459)"
       gradientUnits="userSpaceOnUse" />
  </defs>
  <sodipodi:namedview
     id="base"
     pagecolor="#ffffff"
     bordercolor="#666666"
     borderopacity="1.0"
     inkscape:pageopacity="0.0"
     inkscape:pageshadow="2"
     inkscape:zoom="11.313709"
     inkscape:cx="43.207951"
     inkscape:cy="7.334762"
     inkscape:document-units="mm"
     inkscape:current-layer="layer12"
     showgrid="false"
     inkscape:lockguides="false"
     inkscape:window-width="1920"
     inkscape:window-height="1003"
     inkscape:window-x="-4"
     inkscape:window-y="-4"
     inkscape:window-maximized="1"
     showguides="true"
     inkscape:guide-bbox="true">
    <sodipodi:guide
       position="-0.69984181,6.3405542"
       orientation="1,0"
       id="guide11201"
       inkscape:locked="false" />
  </sodipodi:namedview>
  <metadata
     id="metadata5">
    <rdf:RDF>
      <cc:Work
         rdf:about="">
        <dc:format>image/svg+xml</dc:format>
        <dc:type
           rdf:resource="http://purl.org/dc/dcmitype/StillImage" />
        <dc:title />
      </cc:Work>
    </rdf:RDF>
  </metadata>
  <g
     inkscape:groupmode="layer"
     id="layer12"
     inkscape:label="border 1"
     transform="translate(0,-0.0119717)">
    <rect
       style="opacity:1;fill:#003c6c;fill-opacity:1;stroke:#000000;stroke-width:0.54986651;stroke-miterlimit:4;stroke-dasharray:none;stroke-opacity:1"
       id="rect13099"
       width="16.383467"
       height="4.3417516"
       x="0.27493325"
       y="2.0755339"
       rx="1.3016413"
       ry="1.3016413" />
  </g>
  <g
     inkscape:label="bg"
     inkscape:groupmode="layer"
     id="layer1"
     transform="translate(156.9428,-289.74774)"
     style="display:inline"
     sodipodi:insensitive="true">
    <rect
       style="fill:#003c6c;fill-opacity:1;stroke:none;stroke-width:0.26458332;stroke-miterlimit:4;stroke-dasharray:none"
       id="rect4577"
       width="8.4666662"
       height="8.4666662"
       x="-156.92981"
       y="289.74774"
       ry="2.3386133"
       rx="2.3386133" />
  </g>
  <g
     inkscape:groupmode="layer"
     id="layer7"
     inkscape:label="bottom pulse"
     style="display:inline"
     transform="translate(0.00709176,-0.00488418)">
    <path
       style="opacity:1;fill:#ffffff;fill-opacity:0.7035176;stroke:none;stroke-width:0.77239734;stroke-miterlimit:4;stroke-dasharray:none;filter:url(#filter9058-0)"
       d="M 9.3748841,0.13464847 A 9.2410834,1.9794334 0 0 0 0.13464971,2.1131641 9.2410834,1.9794334 0 0 0 9.3748841,4.0936329 9.2410834,1.9794334 0 0 0 18.617071,2.1131641 9.2410834,1.9794334 0 0 0 9.3748841,0.13464847 Z m 0.123047,0.4746094 A 7.0526938,1.510682 0 0 1 16.550665,2.1190235 7.0526938,1.510682 0 0 1 9.4979311,3.6307422 7.0526938,1.510682 0 0 1 2.4451966,2.1190235 7.0526938,1.510682 0 0 1 9.4979311,0.60925787 Z"
       id="path4530-0"
       inkscape:connector-curvature="0"
       transform="matrix(0.26458333,0,0,0.26458333,1.751,4.5350274)" />
    <path
       style="opacity:1;fill:#ffffff;fill-opacity:0.7035176;stroke:#ffffff;stroke-width:0.40062993;stroke-miterlimit:4;stroke-dasharray:none;stroke-opacity:0.70196078;filter:url(#filter9058-0-1)"
       d="M 9.3748841,0.13464847 A 9.2410834,1.9794334 0 0 0 0.13464971,2.1131641 9.2410834,1.9794334 0 0 0 9.3748841,4.0936329 9.2410834,1.9794334 0 0 0 18.617071,2.1131641 9.2410834,1.9794334 0 0 0 9.3748841,0.13464847 Z m 0.123047,0.4746094 A 7.0526938,1.510682 0 0 1 16.550665,2.1190235 7.0526938,1.510682 0 0 1 9.4979311,3.6307422 7.0526938,1.510682 0 0 1 2.4451966,2.1190235 7.0526938,1.510682 0 0 1 9.4979311,0.60925787 Z"
       id="path4530-0-8"
       inkscape:connector-curvature="0"
       transform="matrix(0.26458333,0,0,0.26458333,1.751,2.3550274)" />
    <path
       style="display:inline;opacity:1;fill:#ffffff;fill-opacity:0.73076922;stroke:url(#radialGradient5583);stroke-width:0.9755296;stroke-miterlimit:4;stroke-dasharray:none;stroke-opacity:1;enable-background:new;filter:url(#filter5573)"
       d="M 9.3748841,0.13464847 A 9.2410834,1.9794334 0 0 0 0.13464971,2.1131641 9.2410834,1.9794334 0 0 0 9.3748841,4.0936329 9.2410834,1.9794334 0 0 0 18.617071,2.1131641 9.2410834,1.9794334 0 0 0 9.3748841,0.13464847 Z m 0.123047,0.4746094 A 7.0526938,1.510682 0 0 1 16.550665,2.1190235 7.0526938,1.510682 0 0 1 9.4979311,3.6307422 7.0526938,1.510682 0 0 1 2.4451966,2.1190235 7.0526938,1.510682 0 0 1 9.4979311,0.60925787 Z"
       id="path4530-0-1"
       inkscape:connector-curvature="0"
       transform="matrix(0.25575011,0,0,0.25679306,1.7509748,6.3349607)" />
  </g>
  <g
     inkscape:groupmode="layer"
     id="layer4"
     inkscape:label="bolt"
     style="display:inline"
     transform="translate(0.00709176,-0.00488418)">
    <g
       id="g4619">
      <path
         sodipodi:nodetypes="ccccccccccc"
         inkscape:connector-curvature="0"
         id="rect979"
         d="M 1.7245097,2.0155275 H 6.7421498 L 4.8035197,4.8595076 h 1.0562701 l -1.6264001,2.1736499 5e-5,-1.60528 h -1.28739 l 0.71709,-1.61774 h -1.71089 v -1.56819 z"
         style="fill:#fdc700;fill-opacity:1;stroke:none;stroke-width:0.05844481;opacity:0.94999999" />
      <path
         sodipodi:nodetypes="cccccc"
         inkscape:connector-curvature="0"
         id="rect979-5"
         d="m 1.9366032,2.0907368 1.5422912,-6.71e-5 -0.075601,0.279 H 2.056 V 2.1879853 Z"
         style="fill:#fde200;fill-opacity:1;stroke:none;stroke-width:0.01558836;opacity:0.94999999" />
      <path
         sodipodi:nodetypes="ccccc"
         inkscape:connector-curvature="0"
         id="rect979-51-0"
         d="M 2.056,2.8230037 V 2.4580487 H 2.4190412 L 2.330587,2.781297 Z"
         style="fill:#fde200;fill-opacity:1;stroke:none;stroke-width:0.06172555;opacity:0.94999999" />
      <path
         sodipodi:nodetypes="cccc"
         inkscape:connector-curvature="0"
         id="rect979-51-0-0"
         d="M 4.3692783,6.0547819 V 5.6426161 l 0.2758537,0.00179 z"
         style="fill:#fde200;fill-opacity:1;stroke:none;stroke-width:0.0132919;opacity:0.94999999" />
      <path
         sodipodi:nodetypes="ccccc"
         inkscape:connector-curvature="0"
         id="rect979-51-0-5"
         d="m 3.2442223,5.0885713 0.5446158,-1.228484 0.1892296,0.00165 -0.5119214,1.2268331 z"
         style="fill:#fde200;fill-opacity:1;stroke:none;stroke-width:0.16931127;opacity:0.94999999" />
    </g>
  </g>
  <g
     inkscape:groupmode="layer"
     id="layer2"
     inkscape:label="bolt 1" />
  <g
     inkscape:groupmode="layer"
     id="layer8"
     inkscape:label="glass border"
     style="display:inline"
     sodipodi:insensitive="true"
     transform="translate(0.00709176,-0.00488418)">
    <rect
       style="opacity:1;fill:none;fill-opacity:0.80904523;stroke:#ffffff;stroke-width:0.64200002;stroke-miterlimit:4;stroke-dasharray:none;stroke-opacity:0.12272728"
       id="rect4596-3-1-6"
       width="7.2069559"
       height="7.2069697"
       x="0.63703185"
       y="0.62266916"
       ry="1.4478271" />
  </g>
  <g
     inkscape:groupmode="layer"
     id="layer5"
     inkscape:label="border"
     style="display:inline;opacity:1"
     transform="translate(0.00709176,-0.00488418)"
     sodipodi:insensitive="true">
    <path
       style="fill:none;fill-opacity:0.80904523;stroke:#000000;stroke-width:0.72692913;stroke-miterlimit:4;stroke-dasharray:none"
       d="m 1.914078,0.35637704 h 4.638494 c 0.8629686,0 1.5572218,0.69473646 1.557428,1.55770516 l 2.771e-4,1.1596271 c 0,0.7730847 0,1.5461694 0,2.3192541 v 1.1596271 c 0,0.8629687 -0.6947365,1.5577052 -1.5577051,1.5577052 H 1.914078 c -0.8629687,0 -1.5577052,-0.6947365 -1.5577052,-1.5577052 V 1.9140822 c 0,-0.8629687 0.6947365,-1.55770516 1.5577052,-1.55770516 z"
       id="rect4596"
       inkscape:connector-curvature="0"
       sodipodi:nodetypes="sssccssssss" />
  </g>
  <g
     inkscape:groupmode="layer"
     id="layer3"
     inkscape:label="spec"
     style="display:inline;opacity:1"
     sodipodi:insensitive="true"
     transform="translate(0.00709176,-0.00488418)">
    <ellipse
       style="opacity:1;fill:#ffffff;fill-opacity:0.98039216;stroke:none;stroke-width:0.23510391;stroke-miterlimit:4;stroke-dasharray:none;stroke-opacity:0.51758794;filter:url(#filter7446)"
       id="path4558"
       ry="0.48842648"
       rx="0.35026354"
       cy="0.15518822"
       cx="1.7329773"
       transform="matrix(0.94529726,0.72045642,-0.86057056,0.8197943,-0.08730608,-0.11071123)" />
    <ellipse
       style="opacity:1;fill:#ffffff;fill-opacity:0.98039216;stroke:none;stroke-width:0.04431476;stroke-miterlimit:4;stroke-dasharray:none;filter:url(#filter10678)"
       id="path4530-8-6-1-6"
       cx="2.1993775"
       cy="-0.99390841"
       rx="0.34234008"
       ry="0.17946661"
       transform="matrix(0,0.59928218,-1.0237348,0,-0.10614916,0.66287573)" />
  </g>
</svg>
