<?xml version="1.0" encoding="UTF-8" standalone="no"?>
<!-- Created with Inkscape (http://www.inkscape.org/) -->

<svg
   xmlns:dc="http://purl.org/dc/elements/1.1/"
   xmlns:cc="http://creativecommons.org/ns#"
   xmlns:rdf="http://www.w3.org/1999/02/22-rdf-syntax-ns#"
   xmlns:svg="http://www.w3.org/2000/svg"
   xmlns="http://www.w3.org/2000/svg"
   xmlns:sodipodi="http://sodipodi.sourceforge.net/DTD/sodipodi-0.dtd"
   xmlns:inkscape="http://www.inkscape.org/namespaces/inkscape"
   width="32mm"
   height="32mm"
   viewBox="0 0 32 32"
   version="1.1"
   id="svg8"
   inkscape:version="0.92.4 (5da689c313, 2019-01-14)"
   sodipodi:docname="back.svg">
  <defs
     id="defs2" />
  <sodipodi:namedview
     id="base"
     pagecolor="#ffffff"
     bordercolor="#666666"
     borderopacity="1.0"
     inkscape:pageopacity="0.0"
     inkscape:pageshadow="2"
     inkscape:zoom="2.8"
     inkscape:cx="37.996699"
     inkscape:cy="113.80451"
     inkscape:document-units="mm"
     inkscape:current-layer="layer1"
     showgrid="false"
     inkscape:window-width="1920"
     inkscape:window-height="1003"
     inkscape:window-x="-4"
     inkscape:window-y="-4"
     inkscape:window-maximized="1" />
  <metadata
     id="metadata5">
    <rdf:RDF>
      <cc:Work
         rdf:about="">
        <dc:format>image/svg+xml</dc:format>
        <dc:type
           rdf:resource="http://purl.org/dc/dcmitype/StillImage" />
        <dc:title></dc:title>
      </cc:Work>
    </rdf:RDF>
  </metadata>
  <g
     inkscape:label="Layer 1"
     inkscape:groupmode="layer"
     id="layer1"
     transform="translate(-46.869045,-104.23214)">
    <path
       style="fill:none;stroke:#000000;stroke-width:0.26458332px;stroke-linecap:butt;stroke-linejoin:miter;stroke-opacity:1"
       d="m 53.083062,125.67499 c -0.342092,-0.0601 -0.08925,0.24532 -0.133635,0.33409 -0.01409,0.0282 -0.05273,0.0387 -0.06682,0.0668 -0.0088,0.0176 0,0.23233 0,0.26727 0,0.0223 0.01575,0.0511 0,0.0668 -0.01575,0.0157 -0.05107,-0.0157 -0.06682,0 -0.01575,0.0157 0,0.0445 0,0.0668 0,0.0223 0,0.0446 0,0.0668 0,0.17818 0,0.35636 0,0.53454 0,0.0474 -0.0086,0.38363 0,0.4009 0.01409,0.0282 0.05273,0.0386 0.06682,0.0668 0.01992,0.0398 -0.01992,0.0938 0,0.13364 0.01409,0.0282 0.05273,0.0386 0.06682,0.0668 0.01,0.0199 -0.01,0.0469 0,0.0668 0.01409,0.0282 0.05273,0.0387 0.06682,0.0668 0.01,0.0199 -0.01,0.0469 0,0.0668 0.01409,0.0282 0.05273,0.0386 0.06682,0.0668 0.01,0.0199 -0.01,0.0469 0,0.0668 0.04009,0.0802 0.160361,0.12027 0.200452,0.20045 0.01,0.0199 -0.01575,0.0511 0,0.0668 0.01575,0.0157 0.05107,-0.0157 0.06682,0 0.01575,0.0157 -0.01,0.0469 0,0.0668 0.02817,0.0563 0.105462,0.0773 0.133635,0.13363 0.01,0.0199 -0.01575,0.0511 0,0.0668 0.01575,0.0157 0.0469,-0.01 0.06682,0 0.06575,0.0329 0.201519,0.23439 0.26727,0.26727 0.01992,0.01 0.05107,-0.0157 0.06682,0 0,0.17818 -0.02227,-0.0223 0.06682,0.0668 0.01575,0.0157 -0.01575,0.0511 0,0.0668 0.01575,0.0157 0.05107,-0.0157 0.06682,0 0.138247,0.13825 -0.211261,-0.005 0.06682,0.13364 0.03984,0.0199 0.102137,-0.0315 0.133635,0 0.01575,0.0157 -0.01575,0.0511 0,0.0668 0.03522,0.0352 0.09842,0.0316 0.133635,0.0668 0.01575,0.0157 -0.01575,0.0511 0,0.0668 0.01575,0.0157 0.0469,-0.01 0.06682,0 0.02817,0.0141 0.04061,0.0494 0.06682,0.0668 0.04144,0.0276 0.0922,0.0392 0.133634,0.0668 0.02621,0.0175 0.03865,0.0527 0.06682,0.0668 0.01992,0.01 0.05107,-0.0157 0.06682,0 0.01575,0.0157 -0.01575,0.0511 0,0.0668 0.01575,0.0157 0.0469,-0.01 0.06682,0 0.02817,0.0141 0.03865,0.0527 0.06682,0.0668 0.01992,0.01 0.0469,-0.01 0.06682,0 0.02817,0.0141 0.04061,0.0493 0.06682,0.0668 0.04144,0.0276 0.0922,0.0392 0.133634,0.0668 0.02621,0.0175 0.03864,0.0527 0.06682,0.0668 0.01992,0.01 0.0469,-0.01 0.06682,0 0.02817,0.0141 0.03865,0.0527 0.06682,0.0668 0.03984,0.0199 0.09379,-0.0199 0.133635,0 0.05635,0.0282 0.07729,0.10546 0.133635,0.13363 0.03984,0.0199 0.09379,-0.0199 0.133635,0 0.02817,0.0141 0.03693,0.0569 0.06682,0.0668 0.04226,0.0141 0.08909,0 0.133635,0 0.02227,0 0.0469,-0.01 0.06682,0 0.02817,0.0141 0.03864,0.0527 0.06682,0.0668 0.01992,0.01 0.0469,-0.01 0.06682,0 0.02817,0.0141 0.03694,0.0568 0.06682,0.0668 0.04226,0.0141 0.09138,-0.0141 0.133635,0 0.02988,0.01 0.04454,0.0445 0.06682,0.0668 0.06682,0 0.135629,-0.0162 0.200452,0 0.03056,0.008 0.03693,0.0569 0.06682,0.0668 0.04226,0.0141 0.09138,-0.0141 0.133635,0 0.02988,0.01 0.03694,0.0569 0.06682,0.0668 0.304172,0 0.0038,-0.0315 0.200452,0.0668 0.01992,0.01 0.04454,0 0.06682,0 0.04455,0 0.09138,-0.0141 0.133634,0 0.02988,0.01 0.03694,0.0569 0.06682,0.0668 0.43926,0.14642 -0.05055,-0.0837 0.200452,0 0.04725,0.0157 0.08639,0.0511 0.133635,0.0668 0.06339,0.0211 0.134932,-0.0131 0.200452,0 0.06906,0.0138 0.132123,0.0497 0.200452,0.0668 0.02161,0.005 0.04569,-0.007 0.06682,0 0.04725,0.0157 0.08639,0.0511 0.133635,0.0668 0.02113,0.007 0.04454,0 0.06682,0 0.06682,0 0.13563,-0.0162 0.200453,0 0.03056,0.008 0.03694,0.0569 0.06682,0.0668 0.03059,0.0102 0.296792,0 0.334087,0 0.02227,0 0.04569,-0.007 0.06682,0 0.04725,0.0157 0.08639,0.0511 0.133635,0.0668 0.06339,0.0211 0.134933,-0.0131 0.200452,0 0.06906,0.0138 0.131389,0.053 0.200452,0.0668 0.04368,0.009 0.08909,0 0.133635,0 0.08909,0 0.17818,0 0.26727,0 0.04454,0 0.09137,-0.0141 0.133634,0 0.02988,0.01 0.03694,0.0569 0.06682,0.0668 0.04226,0.0141 0.08909,0 0.133634,0 0.17818,0 0.35636,0 0.53454,0 0.06682,0 0.135629,-0.0162 0.200452,0 0.03056,0.008 0.03694,0.0569 0.06682,0.0668 0.06339,0.0211 0.133635,0 0.200452,0 0.155908,0 0.311815,0 0.467722,0 0.467722,0 0.935443,0 1.403165,0 0.26727,0 0.534539,0 0.801809,0 0.05332,0 0.294,0.0134 0.334087,0 0.04725,-0.0157 0.08639,-0.0511 0.133634,-0.0668 0.04226,-0.0141 0.08909,0 0.133635,0 0.08909,0 0.17818,0 0.26727,0 0.04454,0 0.08909,0 0.133634,0 0.02227,0 0.04521,0.005 0.06682,0 0.06833,-0.0171 0.132123,-0.0497 0.200452,-0.0668 0.04322,-0.0108 0.09138,0.0141 0.133635,0 0.04725,-0.0157 0.08639,-0.0511 0.133634,-0.0668 0.06339,-0.0211 0.137064,0.0211 0.200453,0 0.02988,-0.01 0.03864,-0.0527 0.06682,-0.0668 0.02032,-0.0102 0.22113,0 0.267269,0 0.150957,0 -0.02988,0.01 0.200453,-0.0668 0.06013,-0.02 0.140316,0.0201 0.200452,0 0.02988,-0.01 0.03864,-0.0527 0.06682,-0.0668 0.03984,-0.0199 0.09138,0.0141 0.133635,0 0.04725,-0.0157 0.08639,-0.0511 0.133635,-0.0668 0.06014,-0.02 0.140316,0.02 0.200452,0 0.04725,-0.0157 0.08639,-0.0511 0.133634,-0.0668 0.04226,-0.0141 0.09379,0.0199 0.133635,0 0.02817,-0.0141 0.03865,-0.0527 0.06682,-0.0668 0.03984,-0.0199 0.09379,0.0199 0.133634,0 0.02817,-0.0141 0.03865,-0.0527 0.06682,-0.0668 0.01992,-0.01 0.04454,0 0.06682,0 0.02227,0 0.0469,0.01 0.06682,0 0.02817,-0.0141 0.03865,-0.0527 0.06682,-0.0668 0.05345,-0.0267 0.146998,0.0267 0.200452,0 0.305797,-0.1529 -0.283534,0.0277 0.200452,-0.13364 0.04226,-0.0141 0.09379,0.0199 0.133635,0 0.02817,-0.0141 0.03865,-0.0527 0.06682,-0.0668 0.01992,-0.01 0.0469,0.01 0.06682,0 0.02817,-0.0141 0.03865,-0.0527 0.06682,-0.0668 0.01992,-0.01 0.04454,0 0.06682,0 0.04454,-0.0223 0.0922,-0.0392 0.133635,-0.0668 0.02621,-0.0175 0.03865,-0.0527 0.06682,-0.0668 0.01992,-0.01 0.0469,0.01 0.06682,0 0.02817,-0.0141 0.03865,-0.0527 0.06682,-0.0668 0.164568,-0.0823 -0.06032,0.19395 0.200452,-0.0668 0.01575,-0.0157 -0.01575,-0.0511 0,-0.0668 0.0315,-0.0315 0.09379,0.0199 0.133635,0 0.05635,-0.0282 0.08122,-0.0987 0.133635,-0.13363 0.04144,-0.0276 0.08639,-0.0511 0.133635,-0.0668 0.02113,-0.007 0.05107,0.0157 0.06682,0 0.01575,-0.0157 -0.01575,-0.0511 0,-0.0668 0.01575,-0.0157 0.0469,0.01 0.06682,0 0.02817,-0.0141 0.03864,-0.0527 0.06682,-0.0668 0.01992,-0.01 0.0469,0.01 0.06682,0 0.05635,-0.0282 0.07729,-0.10546 0.133635,-0.13363 0.01992,-0.01 0.0469,0.01 0.06682,0 0.02817,-0.0141 0.03865,-0.0527 0.06682,-0.0668 0.01992,-0.01 0.05107,0.0157 0.06682,0 0.01575,-0.0157 -0.01575,-0.0511 0,-0.0668 0.01575,-0.0157 0.04569,0.007 0.06682,0 0.04725,-0.0157 0.09842,-0.0316 0.133634,-0.0668 0.01575,-0.0157 -0.01575,-0.0511 0,-0.0668 0.01575,-0.0157 0.0469,0.01 0.06682,0 0.02817,-0.0141 0.03865,-0.0527 0.06682,-0.0668 0.01992,-0.01 0.05107,0.0157 0.06682,0 0.138248,-0.13824 -0.21126,0.005 0.06682,-0.13363 0.02227,0 0.04454,0 0.06682,0 0.02227,0 0.0469,0.01 0.06682,0 0.05635,-0.0282 0.08122,-0.0987 0.133634,-0.13364 0.04144,-0.0276 0.0922,-0.0392 0.133635,-0.0668 0.05242,-0.035 0.07729,-0.10547 0.133635,-0.13364 0.01992,-0.01 0.05107,0.0157 0.06682,0 0.01575,-0.0157 -0.01,-0.0469 0,-0.0668 0.07387,-0.14773 0.04147,-0.0207 0.133635,-0.0668 0.02817,-0.0141 0.04454,-0.0446 0.06682,-0.0668 0.02266,-0.0227 0.299573,-0.31683 0.334087,-0.33409 0.09216,-0.0461 0.05977,0.0809 0.133635,-0.0668 0.01,-0.0199 -0.01575,-0.0511 0,-0.0668 0.01575,-0.0157 0.0469,0.01 0.06682,0 0.278077,-0.13904 -0.07143,0.005 0.06682,-0.13364 0.07043,-0.0704 0.196838,-0.0632 0.26727,-0.13363 0.01575,-0.0157 -0.01,-0.0469 0,-0.0668 0.01409,-0.0282 0.04454,-0.0445 0.06682,-0.0668 0.04455,-0.0445 0.08909,-0.0891 0.133635,-0.13363 0.04454,-0.0445 0.09869,-0.0812 0.133634,-0.13364 0.01235,-0.0185 -0.01575,-0.0511 0,-0.0668 0.01575,-0.0157 0.05107,0.0157 0.06682,0 0.01575,-0.0157 -0.01,-0.0469 0,-0.0668 0.02817,-0.0563 0.105462,-0.0773 0.133635,-0.13364 0.01,-0.0199 -0.01575,-0.0511 0,-0.0668 0.01575,-0.0157 0.05107,0.0158 0.06682,0 0.138247,-0.13825 -0.211261,0.005 0.06682,-0.13364 0.01992,-0.01 0.05107,0.0158 0.06682,0 0.01575,-0.0157 -0.01,-0.0469 0,-0.0668 0.01409,-0.0282 0.04935,-0.0406 0.06682,-0.0668 0.02763,-0.0414 0.03919,-0.0922 0.06682,-0.13364 0.01747,-0.0262 0.04935,-0.0406 0.06682,-0.0668 0.02763,-0.0414 0.0316,-0.0984 0.06682,-0.13364 0.01575,-0.0157 0.05107,0.0158 0.06682,0 0.0315,-0.0315 -0.01992,-0.0938 0,-0.13363 0.02817,-0.0563 0.105461,-0.0773 0.133634,-0.13364 0.0099,-0.0199 -0.01574,-0.0511 0,-0.0668 0.01574,-0.0157 0.05107,0.0157 0.06682,0 0.01574,-0.0157 -0.0099,-0.0469 0,-0.0668 0.01408,-0.0282 0.05273,-0.0387 0.06682,-0.0668 0.0099,-0.0199 -0.0099,-0.0469 0,-0.0668 0.01408,-0.0282 0.05273,-0.0386 0.06682,-0.0668 0.01992,-0.0398 -0.0315,-0.10213 0,-0.13363 0.01574,-0.0157 0.05107,0.0157 0.06682,0 0.0315,-0.0315 -0.01992,-0.0938 0,-0.13364 0.01408,-0.0282 0.05273,-0.0386 0.06682,-0.0668 0.0099,-0.0199 -0.0099,-0.0469 0,-0.0668 0.01408,-0.0282 0.05273,-0.0386 0.06682,-0.0668 0.0099,-0.0199 -0.007,-0.0457 0,-0.0668 0.01574,-0.0473 0.05107,-0.0864 0.06682,-0.13364 0.01408,-0.0423 -0.01992,-0.0938 0,-0.13363 0.01408,-0.0282 0.05273,-0.0386 0.06682,-0.0668 0.0099,-0.0199 -0.007,-0.0457 0,-0.0668 0.01574,-0.0472 0.05107,-0.0864 0.06681,-0.13363 0.007,-0.0211 -0.0099,-0.0469 0,-0.0668 0.01408,-0.0282 0.05273,-0.0387 0.06682,-0.0668 0.01,-0.0199 -0.007,-0.0457 0,-0.0668 0.01574,-0.0472 0.05107,-0.0864 0.06682,-0.13363 0.01407,-0.0423 -0.01992,-0.0938 0,-0.13364 0.01407,-0.0282 0.05273,-0.0386 0.06682,-0.0668 0.01326,-0.0265 -0.01365,-0.1868 0,-0.20046 0.01574,-0.0157 0.05107,0.0157 0.06682,0 0.02344,-0.0234 -0.02307,-0.28793 0,-0.33408 0.01408,-0.0282 0.05273,-0.0387 0.06682,-0.0668 0.01992,-0.0398 -0.01992,-0.0938 0,-0.13363 0.01407,-0.0282 0.05273,-0.0386 0.06682,-0.0668 0.0088,-0.0176 0,-0.23233 0,-0.26727 0,-0.20045 0,-0.40091 0,-0.60136 0,-0.17818 0,-0.35636 0,-0.53454 0,-0.0349 0.0088,-0.2497 0,-0.26727 -0.01408,-0.0282 -0.05273,-0.0386 -0.06682,-0.0668 -0.0099,-0.0199 0,-0.0446 0,-0.0668 0,-0.0281 0.0099,-0.38103 0,-0.40091 -0.01408,-0.0282 -0.05686,-0.0369 -0.06682,-0.0668 -0.01233,-0.037 0,-0.33362 0,-0.40091 0,-0.0223 0,-0.0445 0,-0.0668 0,-0.0223 0.01574,-0.0511 0,-0.0668 -0.01574,-0.0157 -0.05107,0.0157 -0.06682,0 -0.01574,-0.0157 0,-0.0446 0,-0.0668 0,-0.0264 0.01426,-0.30555 0,-0.33409 -0.01408,-0.0282 -0.05273,-0.0386 -0.06682,-0.0668 -0.02109,-0.0422 0.02109,-0.29194 0,-0.33409 -0.01408,-0.0282 -0.05273,-0.0386 -0.06682,-0.0668 -0.02109,-0.0422 0.02109,-0.29193 0,-0.33408 -0.01408,-0.0282 -0.05273,-0.0387 -0.06682,-0.0668 -0.01812,-0.0362 0.01828,-0.24899 0,-0.26727 -0.01574,-0.0157 -0.05107,0.0157 -0.06681,0 -0.01574,-0.0157 0,-0.0446 0,-0.0668 0,-0.0445 0.01992,-0.0938 0,-0.13363 -0.0099,-0.0199 -0.05107,0.0157 -0.06682,0 -0.03341,-0.0334 0.03341,-0.16705 0,-0.20046 -0.01574,-0.0157 -0.05107,0.0157 -0.06682,0 -0.01574,-0.0157 0,-0.0445 0,-0.0668 0,-0.0446 0.01992,-0.0938 0,-0.13364 -0.0099,-0.0199 -0.05107,0.0157 -0.06682,0 -0.01574,-0.0157 0,-0.0445 0,-0.0668 0,-0.0446 0.01992,-0.0938 0,-0.13364 -0.0099,-0.0199 -0.05107,0.0157 -0.06682,0 -0.01574,-0.0157 0.0099,-0.0469 0,-0.0668 -0.01408,-0.0282 -0.05273,-0.0386 -0.06682,-0.0668 -0.01992,-0.0399 0.0315,-0.10214 0,-0.13364 -0.01574,-0.0157 -0.05107,0.0157 -0.06682,0 -0.0315,-0.0315 0.01992,-0.0938 0,-0.13363 -0.01408,-0.0282 -0.05273,-0.0387 -0.06682,-0.0668 -0.0099,-0.0199 0.0099,-0.0469 0,-0.0668 -0.01408,-0.0282 -0.05273,-0.0386 -0.06682,-0.0668 -0.01992,-0.0398 0.0315,-0.10213 0,-0.13363 -0.01574,-0.0157 -0.05686,0.0199 -0.06682,0 -0.01992,-0.0398 0.01992,-0.0938 0,-0.13364 -0.01,-0.0199 -0.05107,0.0157 -0.06682,0 -0.01575,-0.0157 0.007,-0.0457 0,-0.0668 -0.01575,-0.0472 -0.05107,-0.0864 -0.06682,-0.13364 -0.007,-0.0211 0.01575,-0.0511 0,-0.0668 -0.01575,-0.0157 -0.05107,0.0157 -0.06682,0 -0.01575,-0.0157 0.01,-0.0469 0,-0.0668 -0.01409,-0.0282 -0.05273,-0.0387 -0.06682,-0.0668 -0.01992,-0.0398 0.0315,-0.10214 0,-0.13363 -0.01575,-0.0157 -0.05107,0.0157 -0.06682,0 -0.01575,-0.0157 0.01,-0.0469 0,-0.0668 -0.02817,-0.0564 -0.105462,-0.0773 -0.133635,-0.13364 -0.01992,-0.0398 0.0315,-0.10213 0,-0.13363 -0.01575,-0.0157 -0.05107,0.0158 -0.06682,0 -0.0315,-0.0315 0.0315,-0.10214 0,-0.13364 -0.01575,-0.0157 -0.05107,0.0158 -0.06682,0 -0.01575,-0.0157 0.01,-0.0469 0,-0.0668 -0.02817,-0.0564 -0.105463,-0.0773 -0.133635,-0.13364 -0.01,-0.0199 0.01575,-0.0511 0,-0.0668 -0.01575,-0.0157 -0.05107,0.0157 -0.06682,0 -0.01575,-0.0157 0.01,-0.0469 0,-0.0668 -0.03288,-0.0657 -0.234394,-0.20152 -0.267269,-0.26727 -0.01,-0.0199 0.01575,-0.0511 0,-0.0668 -0.01575,-0.0157 -0.05107,0.0157 -0.06682,0 -0.01575,-0.0157 0.01,-0.0469 0,-0.0668 -0.02817,-0.0563 -0.105463,-0.0773 -0.133635,-0.13363 -0.01,-0.0199 0.01575,-0.0511 0,-0.0668 -0.01575,-0.0157 -0.05107,0.0158 -0.06682,0 -0.01575,-0.0157 0.01,-0.0469 0,-0.0668 -0.02817,-0.0563 -0.105462,-0.0773 -0.133634,-0.13363 -0.01,-0.0199 0.01575,-0.0511 0,-0.0668 -0.01575,-0.0157 -0.05107,0.0157 -0.06682,0 -0.01575,-0.0157 0.01575,-0.0511 0,-0.0668 -0.01575,-0.0157 -0.0469,0.01 -0.06682,0 -0.278078,-0.13904 0.07143,0.005 -0.06682,-0.13363 -0.01575,-0.0157 -0.05107,0.0158 -0.06682,0 -0.01575,-0.0157 0.01575,-0.0511 0,-0.0668 -0.01575,-0.0157 -0.05107,0.0157 -0.06682,0 -0.01575,-0.0157 0.01,-0.0469 0,-0.0668 -0.0089,-0.0177 -0.182712,-0.19158 -0.200453,-0.20045 -0.01992,-0.01 -0.05107,0.0157 -0.06682,0 -0.01575,-0.0158 0.01575,-0.0511 0,-0.0668 -0.01575,-0.0157 -0.05107,0.0157 -0.06682,0 -0.01575,-0.0157 0,-0.0445 0,-0.0668 -0.02227,0 -0.0469,0.01 -0.06682,0 -0.278078,-0.13904 0.07143,0.005 -0.06682,-0.13364 -0.0315,-0.0315 -0.102137,0.0315 -0.133635,0 -0.01575,-0.0157 0.01,-0.0469 0,-0.0668 -0.05117,-0.10233 -0.119069,-0.0523 -0.200452,-0.13363 -0.01575,-0.0158 0.01575,-0.0511 0,-0.0668 -0.01575,-0.0157 -0.0469,0.01 -0.06682,0 -0.05635,-0.0282 -0.07729,-0.10546 -0.133635,-0.13363 -0.01992,-0.01 -0.0469,0.01 -0.06682,0 -0.08018,-0.0401 -0.120271,-0.16036 -0.200452,-0.20045 -0.01992,-0.01 -0.0469,0.01 -0.06682,0 -0.02817,-0.0141 -0.03865,-0.0527 -0.06682,-0.0668 -0.01992,-0.01 -0.05107,0.0157 -0.06682,0 -0.01575,-0.0158 0.01575,-0.0511 0,-0.0668 -0.01575,-0.0157 -0.0469,0.01 -0.06682,0 -0.02817,-0.0141 -0.03865,-0.0527 -0.06682,-0.0668 -0.01992,-0.01 -0.05107,0.0157 -0.06682,0 -0.01575,-0.0157 0.01575,-0.0511 0,-0.0668 -0.01575,-0.0157 -0.0469,0.01 -0.06682,0 -0.02817,-0.0141 -0.03865,-0.0527 -0.06682,-0.0668 -0.01992,-0.01 -0.0469,0.01 -0.06682,0 -0.02817,-0.0141 -0.04061,-0.0493 -0.06682,-0.0668 -0.04144,-0.0276 -0.0922,-0.0392 -0.133634,-0.0668 -0.02621,-0.0175 -0.03865,-0.0527 -0.06682,-0.0668 -0.01992,-0.01 -0.0469,0.01 -0.06682,0 -0.02817,-0.0141 -0.03865,-0.0527 -0.06682,-0.0668 -0.01992,-0.01 -0.05107,0.0157 -0.06682,0 -0.01575,-0.0157 0.01575,-0.0511 0,-0.0668 -0.01575,-0.0158 -0.0469,0.01 -0.06682,0 -0.02817,-0.0141 -0.03864,-0.0527 -0.06682,-0.0668 -0.01992,-0.01 -0.05107,0.0157 -0.06682,0 -0.01575,-0.0157 0.01575,-0.0511 0,-0.0668 -0.0315,-0.0315 -0.09138,0.0141 -0.133635,0 -0.04725,-0.0157 -0.09842,-0.0316 -0.133634,-0.0668 -0.01575,-0.0157 0.01575,-0.0511 0,-0.0668 -0.01575,-0.0157 -0.0469,0.01 -0.06682,0 -0.02817,-0.0141 -0.03864,-0.0527 -0.06682,-0.0668 -0.03984,-0.0199 -0.102137,0.0315 -0.133635,0 -0.01575,-0.0157 0.01575,-0.0511 0,-0.0668 -0.01575,-0.0157 -0.0469,0.01 -0.06682,0 -0.02817,-0.0141 -0.03865,-0.0527 -0.06682,-0.0668 -0.01992,-0.01 -0.0469,0.01 -0.06682,0 -0.02817,-0.0141 -0.03865,-0.0527 -0.06682,-0.0668 -0.01992,-0.01 -0.0469,0.01 -0.06682,0 -0.02817,-0.0141 -0.03864,-0.0527 -0.06682,-0.0668 -0.106574,-0.0533 -0.02706,0.0533 -0.133635,0 -0.305797,-0.1529 0.283534,0.0277 -0.200452,-0.13364 -0.02113,-0.007 -0.05107,0.0158 -0.06682,0 -0.01575,-0.0157 0.01575,-0.0511 0,-0.0668 -0.01575,-0.0157 -0.0469,0.01 -0.06682,0 -0.02817,-0.0141 -0.03864,-0.0527 -0.06682,-0.0668 -0.01992,-0.01 -0.04569,0.007 -0.06682,0 -0.04725,-0.0157 -0.08639,-0.0511 -0.133634,-0.0668 -0.02113,-0.007 -0.0469,0.01 -0.06682,0 -0.02817,-0.0141 -0.03864,-0.0527 -0.06682,-0.0668 -0.01992,-0.01 -0.04569,0.007 -0.06682,0 -0.04725,-0.0157 -0.08639,-0.0511 -0.133634,-0.0668 -0.02113,-0.007 -0.04569,0.007 -0.06682,0 -0.04725,-0.0157 -0.08639,-0.0511 -0.133634,-0.0668 -0.02113,-0.007 -0.04569,0.007 -0.06682,0 -0.04725,-0.0157 -0.08639,-0.0511 -0.133635,-0.0668 -0.04226,-0.0141 -0.102136,0.0315 -0.133634,0 -0.01575,-0.0157 0.01575,-0.0511 0,-0.0668 -0.01366,-0.0137 -0.17396,0.0132 -0.200452,0 -0.02817,-0.0141 -0.03865,-0.0527 -0.06682,-0.0668 -0.04215,-0.0211 -0.291934,0.0211 -0.334087,0 -0.02817,-0.0141 -0.03694,-0.0568 -0.06682,-0.0668 -0.06339,-0.0211 -0.133635,0 -0.200452,0 -0.111363,0 -0.222725,0 -0.334087,0 -0.156699,0 0.0315,0.0157 -0.133635,-0.0668 -0.01757,-0.009 -0.232329,0 -0.267269,0 -0.200453,0 -0.400905,0 -0.601357,0 -0.200452,0 -0.400904,0 -0.601356,0 -0.03494,0 -0.249701,-0.009 -0.26727,0 -0.02817,0.0141 -0.03694,0.0569 -0.06682,0.0668 -0.03442,0.0115 -0.397041,0 -0.467722,0 -0.02227,0 -0.04454,0 -0.06682,0 -0.02227,0 -0.0469,-0.01 -0.06682,0 -0.02817,0.0141 -0.03864,0.0527 -0.06682,0.0668 -0.01992,0.01 -0.04454,0 -0.06682,0 -0.02811,0 -0.381028,-0.01 -0.400905,0 -0.02817,0.0141 -0.03864,0.0527 -0.06682,0.0668 -0.04215,0.0211 -0.291934,-0.0211 -0.334087,0 -0.02817,0.0141 -0.03864,0.0527 -0.06682,0.0668 -0.03984,0.0199 -0.09138,-0.0141 -0.133635,0 -0.04725,0.0158 -0.08639,0.0511 -0.133635,0.0668 -0.056,0.0187 -0.222988,-0.0221 -0.267269,0 -0.02817,0.0141 -0.03865,0.0527 -0.06682,0.0668 -0.03984,0.0199 -0.09138,-0.0141 -0.133635,0 -0.04725,0.0157 -0.08639,0.0511 -0.133634,0.0668 -0.02113,0.007 -0.0469,-0.01 -0.06682,0 -0.02817,0.0141 -0.03864,0.0527 -0.06682,0.0668 -0.04139,0.0207 -0.2475,-0.0198 -0.26727,0 -0.01575,0.0157 0.01575,0.0511 0,0.0668 -0.0315,0.0315 -0.102136,-0.0315 -0.133635,0 -0.01575,0.0157 0.01575,0.0511 0,0.0668 -0.0315,0.0315 -0.09137,-0.0141 -0.133634,0 -0.09449,0.0315 -0.172776,0.10214 -0.26727,0.13364 -0.100226,0.0334 -0.06682,-0.0668 -0.200452,0 -0.01992,0.01 0.01575,0.0511 0,0.0668 -0.01366,0.0137 -0.173959,-0.0132 -0.200452,0 -0.02817,0.0141 -0.03694,0.0569 -0.06682,0.0668 -0.04226,0.0141 -0.09379,-0.0199 -0.133635,0 -0.01992,0.01 0.01575,0.0511 0,0.0668 -0.0315,0.0315 -0.09379,-0.0199 -0.133635,0 -0.02817,0.0141 -0.03865,0.0527 -0.06682,0.0668 -0.05345,0.0267 -0.146999,-0.0267 -0.200452,0 -0.02817,0.0141 -0.03865,0.0527 -0.06682,0.0668 -0.03984,0.0199 -0.102136,-0.0315 -0.133635,0 -0.01575,0.0157 0.01575,0.0511 0,0.0668 -0.0315,0.0315 -0.102136,-0.0315 -0.133634,0 -0.138248,0.13825 0.21126,-0.005 -0.06682,0.13364 -0.01992,0.01 -0.05107,-0.0157 -0.06682,0 -0.01575,0.0157 0.01575,0.0511 0,0.0668 -0.01575,0.0157 -0.05107,-0.0157 -0.06682,0 -0.01575,0.0157 0.01575,0.0511 0,0.0668 -0.01575,0.0157 -0.05107,-0.0158 -0.06682,0 -0.08909,0.0891 0.111362,0.0668 -0.06682,0.0668"
       id="path4753"
       inkscape:connector-curvature="0" />
    <path
       style="fill:none;stroke:#000000;stroke-width:0.26458332px;stroke-linecap:butt;stroke-linejoin:miter;stroke-opacity:1"
       d="m 59.564347,108.90383 c -0.08909,0.0668 -0.178179,0.13364 -0.267269,0.20045 0,0.0223 0.01575,0.0511 0,0.0668 -0.01575,0.0158 -0.05107,-0.0157 -0.06682,0 -0.01575,0.0158 0.01575,0.0511 0,0.0668 -0.01575,0.0157 -0.05107,-0.0157 -0.06682,0 -0.01575,0.0157 0.01575,0.0511 0,0.0668 -0.0315,0.0315 -0.102137,-0.0315 -0.133635,0 -0.138247,0.13824 0.211261,-0.005 -0.06682,0.13363 -0.01992,0.01 -0.05107,-0.0158 -0.06682,0 -0.01575,0.0157 0.01,0.0469 0,0.0668 -0.0089,0.0177 -0.182712,0.19158 -0.200453,0.20045 -0.01992,0.01 -0.05107,-0.0157 -0.06682,0 -0.01575,0.0157 0.01,0.0469 0,0.0668 -0.01409,0.0282 -0.04454,0.0445 -0.06682,0.0668 -0.02227,0.0223 -0.03864,0.0527 -0.06682,0.0668 -0.03984,0.0199 -0.102136,-0.0315 -0.133635,0 -0.01575,0.0157 0.01575,0.0511 0,0.0668 -0.01575,0.0157 -0.05107,-0.0157 -0.06682,0 -0.01575,0.0157 0.01575,0.0511 0,0.0668 -0.0315,0.0315 -0.09379,-0.0199 -0.133635,0 -0.02817,0.0141 -0.04061,0.0493 -0.06682,0.0668 -0.04144,0.0276 -0.0922,0.0392 -0.133635,0.0668 -0.02621,0.0175 -0.04061,0.0494 -0.06682,0.0668 -0.04144,0.0276 -0.09842,0.0316 -0.133635,0.0668 -0.01575,0.0157 0.01575,0.0511 0,0.0668 -0.01575,0.0157 -0.0469,-0.01 -0.06682,0 -0.02817,0.0141 -0.03865,0.0527 -0.06682,0.0668 -0.01992,0.01 -0.05107,-0.0157 -0.06682,0 -0.01575,0.0157 0.01575,0.0511 0,0.0668 -0.01575,0.0157 -0.0469,-0.01 -0.06682,0 -0.221606,0.2216 0.063,-0.0315 -0.133635,0.0668 -0.02817,0.0141 -0.04454,0.0445 -0.06682,0.0668 -0.04454,0.0446 -0.08122,0.0987 -0.133634,0.13364 -0.01853,0.0123 -0.05107,-0.0157 -0.06682,0 -0.01575,0.0157 0.01575,0.0511 0,0.0668 -0.01575,0.0157 -0.0469,-0.01 -0.06682,0 -0.221605,0.2216 0.063,-0.0315 -0.133635,0.0668 -0.278078,0.13904 0.07143,-0.005 -0.06682,0.13364 -0.01575,0.0157 -0.0469,-0.01 -0.06682,0 -0.02817,0.0141 -0.03864,0.0527 -0.06682,0.0668 -0.01992,0.01 -0.0469,-0.01 -0.06682,0 -0.278078,0.13903 0.07143,-0.005 -0.06682,0.13363 -0.01575,0.0157 -0.0469,-0.01 -0.06682,0 -0.221606,0.22161 0.063,-0.0315 -0.133635,0.0668 -0.02817,0.0141 -0.04454,0.0445 -0.06682,0.0668 -0.02227,0.0223 -0.03864,0.0527 -0.06682,0.0668 -0.09217,0.0461 -0.05977,-0.0809 -0.133634,0.0668 -0.01,0.0199 0.01992,0.0569 0,0.0668 -0.03984,0.0199 -0.09138,-0.0141 -0.133635,0 -0.02988,0.01 -0.04454,0.0445 -0.06682,0.0668 -0.0393,0.0393 -0.236327,0.2518 -0.267269,0.26727 -0.01992,0.01 -0.0469,-0.01 -0.06682,0 -0.07206,0.036 -0.06158,0.0976 -0.133635,0.13364 -0.01992,0.01 -0.04829,-0.0124 -0.06682,0 -0.04942,0.0329 -0.212303,0.23979 -0.267269,0.26727 -0.01992,0.01 -0.0469,-0.01 -0.06682,0 -0.02817,0.0141 -0.04061,0.0493 -0.06682,0.0668 -0.04144,0.0276 -0.09842,0.0316 -0.133635,0.0668 -0.138247,0.13825 0.211261,-0.005 -0.06682,0.13364 -0.164568,0.0823 0.06032,-0.19396 -0.200452,0.0668 -0.01575,0.0157 0.01575,0.0511 0,0.0668 -0.01575,0.0158 -0.04829,-0.0123 -0.06682,0 -0.04454,0.0446 -0.08909,0.0891 -0.133635,0.13364 -0.02227,0 -0.0469,-0.01 -0.06682,0 -0.08018,0.0401 -0.120271,0.16036 -0.200452,0.20045 -0.01992,0.01 -0.0469,-0.01 -0.06682,0 -0.05922,0.0296 -0.139628,0.1599 -0.200452,0.20045 -0.04144,0.0276 -0.09842,0.0316 -0.133635,0.0668 -0.138248,0.13825 0.21126,-0.005 -0.06682,0.13363 -0.01992,0.01 -0.05107,-0.0157 -0.06682,0 -0.138247,0.13825 0.211261,-0.005 -0.06682,0.13364 -0.01992,0.01 -0.05107,-0.0158 -0.06682,0 -0.01575,0.0157 0.01,0.0469 0,0.0668 -0.01409,0.0282 -0.04454,0.0445 -0.06682,0.0668 -0.02227,0.0223 -0.04454,0.0446 -0.06682,0.0668 0,0.0223 0.01575,0.0511 0,0.0668 -0.01575,0.0157 -0.05107,-0.0157 -0.06682,0 -0.01575,0.0157 0.01,0.0469 0,0.0668 -0.08257,0.16513 -0.06682,-0.0231 -0.06682,0.13363 0,0.0223 0.01575,0.0511 0,0.0668 -0.01575,0.0157 -0.06682,0.0223 -0.06682,0 0,-0.0223 0.04454,0 0.06682,0 0.17818,0 -0.02227,-0.0223 0.06682,0.0668 0.0315,0.0315 0.102137,-0.0315 0.133635,0 0.01575,0.0157 -0.01575,0.0511 0,0.0668 0.01575,0.0158 0.0469,-0.01 0.06682,0 0.02817,0.0141 0.03865,0.0527 0.06682,0.0668 0.03984,0.0199 0.09379,-0.0199 0.133635,0 0.02817,0.0141 0.03864,0.0527 0.06682,0.0668 0.01992,0.01 0.0469,-0.01 0.06682,0 0.02817,0.0141 0.03864,0.0527 0.06682,0.0668 0.01992,0.01 0.0469,-0.01 0.06682,0 0.02817,0.0141 0.03865,0.0527 0.06682,0.0668 0.01992,0.01 0.04454,0 0.06682,0 0.02227,0.0223 0.03864,0.0527 0.06682,0.0668 0.03984,0.0199 0.09379,-0.0199 0.133635,0 0.02817,0.0141 0.03864,0.0527 0.06682,0.0668 0.03984,0.0199 0.09379,-0.0199 0.133635,0 0.02817,0.0141 0.03864,0.0527 0.06682,0.0668 0.01992,0.01 0.04454,0 0.06682,0 0.02227,0.0223 0.03864,0.0527 0.06682,0.0668 0.03984,0.0199 0.09379,-0.0199 0.133635,0 0.02817,0.0141 0.03865,0.0527 0.06682,0.0668 0.0427,0.0214 0.213489,-0.0179 0.26727,0 0.04725,0.0158 0.08639,0.0511 0.133635,0.0668 0.04226,0.0141 0.09379,-0.0199 0.133634,0 0.02817,0.0141 0.03865,0.0527 0.06682,0.0668 0.04428,0.0221 0.211268,-0.0187 0.267269,0 0.04725,0.0157 0.0848,0.057 0.133635,0.0668 0.06552,0.0131 0.133635,0 0.200452,0 0.04454,0 0.09138,-0.0141 0.133635,0 0.02988,0.01 0.03865,0.0527 0.06682,0.0668 0.01992,0.01 0.04454,0 0.06682,0 0.04454,0 0.09137,-0.0141 0.133635,0 0.02988,0.01 0.03693,0.0568 0.06682,0.0668 0.03829,0.0128 0.271357,0 0.334087,0 0.44321,0 -0.09449,-0.0315 0.200452,0.0668 0.07545,0.0251 0.251763,-0.0165 0.334087,0 0.06906,0.0138 0.131388,0.053 0.200452,0.0668 0.128666,0.0257 0.273393,-0.0319 0.400904,0 0.03056,0.008 0.03694,0.0569 0.06682,0.0668 0.08452,0.0282 0.182751,-0.0282 0.267269,0 0.02988,0.01 0.03694,0.0568 0.06682,0.0668 0.04226,0.0141 0.08909,0 0.133635,0 0.0702,0 0.267781,-0.0133 0.334087,0 0.06906,0.0138 0.131388,0.053 0.200452,0.0668 0.08736,0.0175 0.17818,0 0.26727,0 0.133635,0 0.267269,0 0.400904,0 0.04454,0 0.08995,-0.009 0.133635,0 0.06906,0.0138 0.132123,0.0497 0.200452,0.0668 0.02161,0.005 0.04454,0 0.06682,0 0.04454,0 0.08909,0 0.133635,0 0.155907,0 0.311815,0 0.467722,0 0.04454,0 0.08909,0 0.133635,0 0.04454,0 0.09137,-0.0141 0.133634,0 0.02988,0.01 0.03694,0.0569 0.06682,0.0668 0.03059,0.0102 0.296792,0 0.334087,0 0.222724,0 0.445449,0 0.668174,0 0.02276,0 0.231107,-0.0121 0.267269,0 0.04725,0.0157 0.08639,0.0511 0.133635,0.0668 0.04321,0.0144 0.261129,0 0.334087,0 0.133635,0 0.267269,0 0.400904,0 0.02276,0 0.231108,-0.0121 0.26727,0 0.04725,0.0157 0.08639,0.0511 0.133634,0.0668 0.04321,0.0144 0.261129,0 0.334087,0 0.03494,0 0.249701,-0.009 0.26727,0 0.02817,0.0141 0.03864,0.0527 0.06682,0.0668 0.042,0.021 0.225273,-0.021 0.26727,0 0.165132,0.0826 -0.02306,0.0668 0.133634,0.0668"
       id="path4755"
       inkscape:connector-curvature="0" />
  </g>
</svg>
