<?xml version="1.0" encoding="UTF-8" standalone="no"?>
<!-- Created with Inkscape (http://www.inkscape.org/) -->

<svg
   xmlns:dc="http://purl.org/dc/elements/1.1/"
   xmlns:cc="http://creativecommons.org/ns#"
   xmlns:rdf="http://www.w3.org/1999/02/22-rdf-syntax-ns#"
   xmlns:svg="http://www.w3.org/2000/svg"
   xmlns="http://www.w3.org/2000/svg"
   xmlns:sodipodi="http://sodipodi.sourceforge.net/DTD/sodipodi-0.dtd"
   xmlns:inkscape="http://www.inkscape.org/namespaces/inkscape"
   width="23.127241mm"
   height="25.391407mm"
   viewBox="0 0 23.127241 25.391407"
   version="1.1"
   id="svg120"
   inkscape:version="0.92.4 (5da689c313, 2019-01-14)"
   sodipodi:docname="gen1.svg">
  <defs
     id="defs114" />
  <sodipodi:namedview
     id="base"
     pagecolor="#ffffff"
     bordercolor="#666666"
     borderopacity="1.0"
     inkscape:pageopacity="0.0"
     inkscape:pageshadow="2"
     inkscape:zoom="3.959798"
     inkscape:cx="58.666441"
     inkscape:cy="70.222452"
     inkscape:document-units="mm"
     inkscape:current-layer="layer1"
     showgrid="false"
     inkscape:window-width="1920"
     inkscape:window-height="1003"
     inkscape:window-x="-4"
     inkscape:window-y="-4"
     inkscape:window-maximized="1" />
  <metadata
     id="metadata117">
    <rdf:RDF>
      <cc:Work
         rdf:about="">
        <dc:format>image/svg+xml</dc:format>
        <dc:type
           rdf:resource="http://purl.org/dc/dcmitype/StillImage" />
        <dc:title></dc:title>
      </cc:Work>
    </rdf:RDF>
  </metadata>
  <g
     inkscape:label="Layer 1"
     inkscape:groupmode="layer"
     id="layer1"
     transform="translate(-1.8666158e-6,-271.60859)">
    <ellipse
       style="fill:#ffffff;stroke:#000000;stroke-width:0.21974836"
       id="path49"
       cx="12.214109"
       cy="293.18243"
       rx="10.794739"
       ry="3.7076857" />
    <ellipse
       style="fill:#ffffff;stroke:#000000;stroke-width:0.21974836"
       id="path49-0"
       cx="10.981722"
       cy="275.42615"
       rx="10.794739"
       ry="3.7076859" />
    <path
       style="fill:none;stroke:#000000;stroke-width:0.26458332px;stroke-linecap:butt;stroke-linejoin:miter;stroke-opacity:1"
       d="m 0.47292426,275.1611 c -0.07306,0.16766 -0.06682,0.30018 -0.06682,0.46772 0,0.0223 0.01574,0.0511 0,0.0668 -0.01574,0.0157 -0.05107,-0.0157 -0.06682,0 -0.01609,0.0161 0.01609,0.25119 0,0.26727 -0.01574,0.0157 -0.05107,-0.0157 -0.06682,0 -0.02069,0.0207 0.02069,0.3134 0,0.33409 -0.01574,0.0157 -0.05107,-0.0157 -0.06682,0 -0.01574,0.0157 0,0.0445 0,0.0668 0,0.0315 0.003,0.33106 0,0.33409 -0.01574,0.0157 -0.05107,-0.0157 -0.06682,0 -0.01574,0.0157 0,0.0445 0,0.0668 0,0.0223 0,0.0445 0,0.0668 0,0.22272 0,0.44544 0,0.66817 0,0.53454 0,1.06908 0,1.60362 0,0.28954 0,0.57908 0,0.86862 0,0.0474 -0.0087,0.38363 0,0.40091 0.01408,0.0282 0.05273,0.0386 0.06682,0.0668 0.01016,0.0204 0,0.17036 0,0.20045 0,0.15591 0,0.31181 0,0.46772 0,0.0349 -0.0088,0.2497 0,0.26727 0.01408,0.0282 0.05273,0.0386 0.06682,0.0668 0.01064,0.0213 0,0.27437 0,0.33409 0,0.46772 0,0.93544 0,1.40316 0,0.17818 0,0.35636 0,0.53454 0,0.0349 -0.0088,0.2497 0,0.26727 0.01408,0.0282 0.05273,0.0386 0.06682,0.0668 0.01016,0.0204 0,0.17036 0,0.20045 0,0.15591 0,0.31182 0,0.46773 0,0.0301 -0.01016,0.18011 0,0.20045 0.01408,0.0282 0.05273,0.0387 0.06682,0.0668 0.02167,0.0433 -0.02098,0.33795 0,0.4009 0.01574,0.0472 0.05107,0.0864 0.06682,0.13364 0.02365,0.071 -0.02365,0.19627 0,0.26727 0.01574,0.0472 0.05107,0.0864 0.06682,0.13363 0.01357,0.0408 0,0.3493 0,0.4009 0,0.0223 -0.01,0.0469 0,0.0668 0.01408,0.0282 0.05273,0.0387 0.06682,0.0668 0.0099,0.0199 0,0.0445 0,0.0668 0,0.0223 0,0.0445 0,0.0668 0,0.11137 0,0.22273 0,0.33409 0,0.0223 0,0.0446 0,0.0668 0,0.0223 -0.0099,0.0469 0,0.0668 0.01408,0.0282 0.05273,0.0387 0.06681,0.0668 0.02109,0.0421 -0.02109,0.29193 0,0.33409 0.01408,0.0282 0.05273,0.0386 0.06682,0.0668 0.0086,0.0173 0,0.35354 0,0.4009 0,0.0223 0,0.0445 0,0.0668 0,0.0223 -0.01574,0.0511 0,0.0668 0.01574,0.0157 0.05107,-0.0157 0.06682,0 0.02347,0.0235 -0.02307,0.28794 0,0.33409 0.01408,0.0282 0.05273,0.0386 0.06682,0.0668 0.0086,0.0173 0,0.35354 0,0.4009 0,0.0223 -0.01,0.0469 0,0.0668 0.01408,0.0282 0.05273,0.0386 0.06682,0.0668 0.02029,0.0406 -0.02029,0.36034 0,0.40091 0.01407,0.0282 0.05273,0.0386 0.06681,0.0668 0.02109,0.0421 -0.02109,0.29193 0,0.33408 0.01408,0.0282 0.05273,0.0386 0.06682,0.0668 0.02135,0.0427 -0.01791,0.21349 0,0.26728 0.01574,0.0473 0.05107,0.0864 0.06682,0.13363 0.01566,0.047 -0.01831,0.31577 0,0.33409 0.01574,0.0157 0.05107,-0.0157 0.06682,0 0.02069,0.0207 -0.02069,0.3134 0,0.33408 0.01574,0.0157 0.05107,-0.0157 0.06682,0 0.01574,0.0157 0,0.0445 0,0.0668 0,0.0223 0,0.0445 0,0.0668 0,0.0245 -0.0027,0.26458 0,0.26727 0.01574,0.0157 0.05107,-0.0157 0.06682,0 0.01574,0.0157 0,0.0446 0,0.0668 0,0.0223 0,0.0445 0,0.0668 0,0.17818 0,0.35636 0,0.53454 0,0.0162 -0.0021,0.1983 0,0.20045 0.01574,0.0157 0.05107,-0.0157 0.06682,0 0.0021,0.002 0,0.18425 0,0.20045 0,0.40091 0,0.80181 0,1.20272"
       id="path97"
       inkscape:connector-curvature="0" />
    <path
       style="fill:none;stroke:#000000;stroke-width:0.26458332px;stroke-linecap:butt;stroke-linejoin:miter;stroke-opacity:1"
       d="m 21.720853,275.49519 c 0.02228,0.0891 0.04454,0.17818 0.06682,0.26727 0.02228,0 0.05107,-0.0157 0.06682,0 0.01574,0.0157 0,0.0445 0,0.0668 0,0.15591 0,0.31182 0,0.46772 0,0.0162 -0.0021,0.19831 0,0.20046 0.01574,0.0157 0.05107,-0.0157 0.06682,0 0.0021,0.002 0,0.18424 0,0.20045 0,0.4009 0,0.80181 0,1.20271 0,0.44545 0,0.8909 0,1.33635 0,0.13363 0,0.26727 0,0.4009 0,0.0301 0.01016,0.18012 0,0.20045 -0.01408,0.0282 -0.05686,0.0369 -0.06682,0.0668 -0.02114,0.0634 0,0.13364 0,0.20045 0,0.11137 0,0.22273 0,0.33409 0,0.31182 0,0.62363 0,0.93545 0,0.0474 0.0087,0.38362 0,0.4009 -0.01408,0.0282 -0.05273,0.0386 -0.06682,0.0668 -0.0086,0.0173 0,0.35354 0,0.40091 0,0.0474 -0.0086,0.38362 0,0.4009 0.01408,0.0282 0.05273,0.0386 0.06682,0.0668 0.0099,0.0199 0,0.3728 0,0.4009 0,0.0223 -0.0099,0.0469 0,0.0668 0.01408,0.0282 0.05273,0.0387 0.06682,0.0668 0.01,0.0199 0,0.0445 0,0.0668 0,0.11136 0,0.22272 0,0.33409 0,0.0223 0,0.0445 0,0.0668 0,0.0223 -0.0099,0.0469 0,0.0668 0.01408,0.0282 0.05273,0.0386 0.06682,0.0668 0.0086,0.0173 0,0.35354 0,0.4009 0,0.0223 0,0.0445 0,0.0668 0,0.0223 -0.01,0.0469 0,0.0668 0.01408,0.0282 0.05273,0.0386 0.06682,0.0668 0.01016,0.0204 0,0.17037 0,0.20046 0,0.13363 0,0.26727 0,0.4009 0,0.0301 -0.01016,0.18012 0,0.20045 0.01408,0.0282 0.05273,0.0386 0.06682,0.0668 0.0099,0.0199 0,0.0445 0,0.0668 0,0.0223 0,0.0445 0,0.0668 0,0.13363 0,0.26727 0,0.4009 0,0.0349 -0.0088,0.2497 0,0.26727 0.01407,0.0282 0.05686,0.0369 0.06681,0.0668 0.02114,0.0634 0,0.13364 0,0.20046 0,0.13363 0,0.26726 0,0.4009 0,0.0223 0,0.0445 0,0.0668 0,0.0223 -0.0099,0.0469 0,0.0668 0.01408,0.0282 0.05686,0.0369 0.06682,0.0668 0.01408,0.0423 0,0.0891 0,0.13364 0,0.11136 0,0.22272 0,0.33408 0,0.0223 0,0.0446 0,0.0668 0,0.0223 -0.01574,0.0511 0,0.0668 0.01574,0.0157 0.05107,-0.0157 0.06682,0 0.01831,0.0183 -0.01566,0.2871 0,0.33409 0.01574,0.0472 0.05107,0.0864 0.06682,0.13363 0.01976,0.0593 -0.02188,0.29034 0,0.33409 0.01408,0.0282 0.05686,0.0369 0.06682,0.0668 0.01267,0.038 0,0.27116 0,0.33409 0,0.0223 -0.01574,0.0511 0,0.0668 0.01574,0.0157 0.05107,-0.0157 0.06682,0 0.0027,0.003 0,0.24273 0,0.26727 0,0.17818 -0.02228,-0.0223 0.06682,0.0668 0.01574,0.0157 0,0.0445 0,0.0668 0,0.0315 -0.003,0.33105 0,0.33408 0.01574,0.0157 0.05107,-0.0157 0.06682,0 0.01574,0.0157 0,0.0446 0,0.0668 0,0.0315 -0.003,0.33106 0,0.33409 0.01574,0.0157 0.05107,-0.0157 0.06682,0 0.01828,0.0183 -0.01812,0.23102 0,0.26727 0.01408,0.0282 0.05273,0.0386 0.06682,0.0668 0.01812,0.0362 -0.01828,0.24898 0,0.26727 0.01574,0.0157 0.05107,-0.0157 0.06682,0 0.01574,0.0157 0,0.0445 0,0.0668 0,0.0223 0,0.0445 0,0.0668 0,0.11136 0,0.22272 0,0.33408 0,0.0223 -0.01574,0.0511 0,0.0668 0.01574,0.0157 0.05107,-0.0157 0.06682,0 0.01574,0.0157 0,0.0445 0,0.0668 0,0.0223 0,0.0445 0,0.0668 0,0.33409 0,0.66818 0,1.00227 0,0.0349 -0.0088,0.2497 0,0.26727 0.01408,0.0282 0.05273,0.0387 0.06682,0.0668 0.01016,0.0204 0,0.17036 0,0.20045 0,0.1559 0,0.31181 0,0.46772"
       id="path99"
       inkscape:connector-curvature="0" />
    <path
       style="fill:none;stroke:#000000;stroke-width:0.16389517px;stroke-linecap:butt;stroke-linejoin:miter;stroke-opacity:1"
       d="m 11.899347,286.08739 c -0.845425,0 5.581022,-0.0193 5.581022,-0.0193 l -12.6287627,-12.6874 4.6693,10.10765 h -5.029346 l 11.5826817,11.63646 -4.174895,-9.03742"
       id="path26-0"
       inkscape:connector-curvature="0"
       sodipodi:nodetypes="ccccccc" />
  </g>
</svg>
